<svg xmlns="http://www.w3.org/2000/svg" viewBox="0 0 29.14 28"><defs><style>.cls-1{fill:#1f8948;}</style></defs><title>icon-cart</title><g id="Layer_2" data-name="Layer 2"><g id="Layer_1-2" data-name="Layer 1"><path class="cls-1" d="M28.84,8.07a1.45,1.45,0,0,1,.29,1.16l-1.22,7a1.32,1.32,0,0,1-.5.9,1.51,1.51,0,0,1-1,.35H8.61l-.35,2h17a1.48,1.48,0,0,1,1.06.43,1.51,1.51,0,0,1,0,2.15,1.48,1.48,0,0,1-1.06.43H6.46A1.49,1.49,0,0,1,5.3,22a1.56,1.56,0,0,1-.35-1.25l.8-4.37L4.53,4,1.06,3a1.42,1.42,0,0,1-.88-.74A1.6,1.6,0,0,1,.06,1.06,1.41,1.41,0,0,1,.82.17,1.57,1.57,0,0,1,2,.06L6.39,1.47A1.36,1.36,0,0,1,7.08,2a1.68,1.68,0,0,1,.34.8L7.68,5.2,27.81,7.45A1.43,1.43,0,0,1,28.84,8.07ZM8.74,23.34a2.31,2.31,0,0,1,2.31,2.32,2.29,2.29,0,0,1-.68,1.66,2.29,2.29,0,0,1-3.28,0,2.29,2.29,0,0,1-.68-1.66,2.31,2.31,0,0,1,2.31-2.32Zm13.73,0a2.31,2.31,0,0,1,2.32,2.32,2.29,2.29,0,0,1-.68,1.66,2.29,2.29,0,0,1-3.28,0,2.29,2.29,0,0,1-.68-1.66,2.31,2.31,0,0,1,2.32-2.32Z"/></g></g></svg>